<svg version="1" xmlns="http://www.w3.org/2000/svg" width="1000" height="1000" viewBox="0 0 750.000000 750.000000"><path d="M0 375v375h750V0H0v375zM443.6 70c84.6 6.8 145.8 38.8 171.2 89.5 9.3 18.6 13.2 34.5 13.9 56.5.9 26.1-3.1 45.6-13.6 67.5-15.6 32.4-42.7 55.7-79 67.9l-10.4 3.5 4.4 1.1c34.7 8.9 57.2 21.1 78.4 42.4 25.7 25.9 40.3 61.5 42.1 102.6 2 44.4-11.5 82.9-39.4 112.2-32.6 34.2-77.7 54-142.2 62.5-12.3 1.6-27.6 1.8-175.7 2l-162.3.4V69h149.9c93.8 0 154.6.4 162.7 1z"/><path d="M269 248v66h70.8c41.9 0 74.4-.4 79.7-1 34.1-4 56.8-19.7 65.2-45.4 3.6-11.2 3.9-29.5.6-40.1-6.6-21.1-23.8-35.9-49.3-42.7-8.4-2.2-9.4-2.2-87.7-2.5l-79.3-.4V248zm0 245v73.2l77.3-.5c88.2-.5 91.2-.7 113.7-8.9 19.4-7 34.5-19.6 41.8-34.9 5.4-11.3 6.7-17.3 6.6-30.4-.1-37.1-26.1-61.1-74.9-69.1-8.5-1.5-21.5-1.8-87.2-2.1l-77.3-.5V493z"/></svg>